<svg id="Layer_1" xmlns="http://www.w3.org/2000/svg" viewBox="0 0 373 481"><defs><style>.cls-1{fill:none;stroke:#d2d3d4;stroke-miterlimit:10;stroke-width:6px;}.cls-2{fill:#14587f;}.cls-3{fill:#f36e2a;}.cls-4{fill:#d2d3d4;}.cls-5{fill:#4b9673;}.cls-6{fill:#fff;}</style></defs><title>Artboard 1</title><path class="cls-1 path_0" d="M6.17,160L63.8,160L118.86,117.43L172.95,117.5L239.41,71L307.4,71"></path><path class="cls-1 path_1" d="M8,228.5L218.25,228.5L237.94,212.25L304,212.25"></path><path class="cls-1 path_2" d="M8,296L107,296L158.09,342.58L211.33,342.5L245.72,374.12L307.4,374"></path><path class="cls-2 path_3" d="M299.25,386.24a11.94,11.94,0,1,0-11.94-11.94,11.94,11.94,0,0,0,11.94,11.94"></path><path class="cls-1 path_4" d="M5.38,195.45L63.01,195.45L118.07,152.88L228.22,153.2"></path><path class="cls-1 path_5" d="M4.38,126.81L62.01,126.81L117.07,84.24L172.4,83.81L172.4,41"></path><path class="cls-1 path_6" d="M8,358.94L74.6,359L112.62,401.51L164,401.95L164,444.76"></path><path class="cls-1 path_7" d="M8,259.13L141.42,259.13L153.91,275.38L195.82,275.38"></path><path class="cls-1 path_8" d="M7.59,329.4L90.8,329.6L140.12,376L207.56,376.04L240.2,407.6L240.2,443.4"></path><path class="cls-3 path_9" d="M300.25,107.6a36,36,0,1,0-36-36,36,36,0,0,0,36,36"></path><path class="cls-1 path_10" d="M264.21,71.56A36.04,36.04 0,1,1 336.29,71.56A36.04,36.04 0,1,1 264.21,71.56"></path><path class="cls-4 path_11" d="M239.42,162.85a10,10,0,1,0-10.18-10,10.11,10.11,0,0,0,10.18,10"></path><path class="cls-1 path_12" d="M229.23999999999998,152.81A10.18,10.04 0,1,1 249.6,152.81A10.18,10.04 0,1,1 229.23999999999998,152.81"></path><path class="cls-4 path_13" d="M208,285a10,10,0,1,0-10.18-10A10.11,10.11,0,0,0,208,285"></path><path class="cls-1 path_14" d="M197.82999999999998,274.95A10.18,10.04 0,1,1 218.19,274.95A10.18,10.04 0,1,1 197.82999999999998,274.95"></path><path class="cls-4 path_15" d="M240.2,464.49a10,10,0,1,0-10.18-10,10.11,10.11,0,0,0,10.18,10"></path><path class="cls-1 path_16" d="M230.01999999999998,454.45A10.18,10.04 0,1,1 250.38,454.45A10.18,10.04 0,1,1 230.01999999999998,454.45"></path><path class="cls-4 path_17" d="M164,466.84a10,10,0,1,0-10.18-10,10.11,10.11,0,0,0,10.18,10"></path><path class="cls-1 path_18" d="M153.82,456.8A10.18,10.04 0,1,1 174.18,456.8A10.18,10.04 0,1,1 153.82,456.8"></path><path class="cls-4 path_19" d="M172,40A10,10,0,1,0,161.8,30,10.11,10.11,0,0,0,172,40"></path><path class="cls-1 path_20" d="M161.79999999999998,29.96A10.18,10.04 0,1,1 182.16,29.96A10.18,10.04 0,1,1 161.79999999999998,29.96"></path><path class="cls-5 path_21" d="M300.64,248.48a36,36,0,1,0-35.65-36,35.85,35.85,0,0,0,35.65,36"></path><path class="cls-1 path_22" d="M264.99,212.43A35.65,36.04 0,1,1 336.28999999999996,212.43A35.65,36.04 0,1,1 264.99,212.43"></path><path class="cls-2 path_23" d="M300.64,410.1A35.5,35.5,0,1,0,265,374.6a35.58,35.58,0,0,0,35.65,35.5"></path><path class="cls-1 path_24" d="M264.99,374.6A35.65,35.5 0,1,1 336.28999999999996,374.6A35.65,35.5 0,1,1 264.99,374.6"></path><path class="cls-6 path_25" d="M321.29,80.42a43.56,43.56,0,0,0-17.11-5.74,74.88,74.88,0,0,1,14.68,6,2.9,2.9,0,0,1-.55,0,82.15,82.15,0,0,0-22.38-3.72,40.82,40.82,0,0,0-13.84,1.6,1.53,1.53,0,0,1-1.32-.3,14.06,14.06,0,0,1-3.6-6.87c-.28-1.47-.21-1.53,1.23-1.47a4,4,0,0,0,.63-.11,14.85,14.85,0,0,0-1-2,1.67,1.67,0,0,1-.19-1.88c.06-.12.11-.25.16-.37,1-2.32,1-2.14,3.36-1.85,7.78.94,13.79-1.35,17.72-8.16.85-1.47.38-2.33-1.39-2.49a16.14,16.14,0,0,0-7.6,1.13c-1.36.55-2.67,1.23-4.18,1.94.14-.23.18-.34.25-.39a25.12,25.12,0,0,1,10.1-4.58c3.79-.66,7.17.08,10,2.93a66.86,66.86,0,0,1,8.21,10.43c2,3.06,3.88,6.21,5.81,9.31.33.53.57.94-.12,1.51a4.17,4.17,0,0,0-1.07,1.91c-.1.3.2.84.46,1.13.59.64,1.27,1.2,1.91,1.8l-.17.24m-20.7-16.29c0,1.38.19,1.93,1.1,2.45,1.87,1.06,3.76,2.09,5.67,3.07a1,1,0,0,0,1-.26c1.1-1.77,2.16-3.57,3.13-5.41a1.61,1.61,0,0,0-.08-1.45,52,52,0,0,0-3.84-4.12,2.44,2.44,0,0,0-3.54.07,12.31,12.31,0,0,0-3.16,4.62,5.73,5.73,0,0,0-.24,1m12.25.15a3.69,3.69,0,0,0-.49.47c-1,1.73-2,3.47-3.05,5.21-.31.53,0,.86.43,1.15,1,.67,2.1,1.33,3.11,2.05,1.3.93,1.29,1,2.08-.38a10.43,10.43,0,0,1,.74-1.2,2.65,2.65,0,0,0-.23-4,33,33,0,0,1-2.59-3.27m4.52,5.93-1.48,2.53c-1.28,2.2-1,1.79.61,3.09,1.84,1.48,1.87,1.47,3.06-.58.2-.35.46-.92.31-1.17-.71-1.24-1.54-2.41-2.5-3.87m-30.65,0c1-.22,1.81-.37,2.62-.62a3.45,3.45,0,0,0,2.28-2.6c.14-.49,0-.76-.55-.78a4.43,4.43,0,0,0-4.35,4"></path><path class="cls-6 path_26" d="M276.93,86.12a3.71,3.71,0,0,1,1.1-2.64,10.46,10.46,0,0,1,5.47-3,40.79,40.79,0,0,1,12.5-1,71.39,71.39,0,0,1,18.14,2.95c2.84.88,5.57,2.13,8.34,3.23a5.76,5.76,0,0,1,.83.5l-.08.23c-1.24-.3-2.48-.6-3.72-.89a111.18,111.18,0,0,0-19.41-2.75,61.67,61.67,0,0,0-15.74.87,59.53,59.53,0,0,0-6.48,2.1c-.27.09-.53.21-.94.38"></path><path class="cls-6 path_27" d="M301.61,226.91c-1.07,0-2.14,0-3.21,0-.62,0-.92.25-.92.88,0,1.39,0,2.78,0,4.17a1,1,0,0,0,1.11,1.11c2,0,3.92,0,5.88,0a.93.93,0,0,0,1.06-1c0-1.43,0-2.85,0-4.28,0-.58-.28-.84-.86-.83-1,0-2.07,0-3.1,0m-.07-2.44c1.07,0,2.14,0,3.21,0a1.49,1.49,0,0,0,1-.62c.94-1.37,1.83-2.77,2.71-4.18a30.36,30.36,0,0,0,2.82-4.74A10.62,10.62,0,0,0,307.77,203a10,10,0,0,0-11.33-.78,10.93,10.93,0,0,0-5,11.19c.5,2.75,2.09,4.86,3.8,6.95.84,1,1.41,2.29,2.16,3.4a1.62,1.62,0,0,0,1,.72c1.06.09,2.14,0,3.21,0m12.64-13a14.88,14.88,0,0,1-3.93,9.6c-.35.41-.69.82-1.06,1.2a4.77,4.77,0,0,0-1.34,3.69c.08,1.89,0,3.78,0,5.67s-.53,3.22-2.46,3.79a2.76,2.76,0,0,0-1,.79,4,4,0,0,1-5.83,0,4.59,4.59,0,0,0-1.38-.94,2.74,2.74,0,0,1-1.91-2.47c-.1-2.31-.15-4.63-.12-6.94a5.09,5.09,0,0,0-1.26-3.52,33.24,33.24,0,0,1-3.1-4.07,13.37,13.37,0,0,1,3.92-17.89c7.63-5,17.45-.41,19.12,8.64.15.8.2,1.62.29,2.43"></path><path class="cls-6 path_28" d="M310.7,234.12c-1.44-1.33-2.3-2.52-1.66-4.32a10.28,10.28,0,0,0,.19-1.91c.36-2.47,1.76-3.36,4.17-2.67.5.15,1,.31,1.66.52-.36-1.71-1.22-3.25-.28-4.8s2.71-1.29,4.43-1.56c-1-1.46-2.4-2.66-2-4.52s2.13-2.33,3.54-3.3c-1.41-1-3.23-1.49-3.56-3.41s1-3,2.06-4.42c-1.66-.27-3.45,0-4.45-1.53s-.16-3.1.29-4.78c-1.62.27-3.17,1.3-4.66.22s-1.13-2.87-1.48-4.49c-1.41.9-2.44,2.51-4.34,2-1.74-.48-2.12-2.25-3.11-3.65-.93,1.46-1.35,3.26-3.17,3.68s-2.85-1.13-4.24-2c-.32,1.61,0,3.37-1.39,4.45s-3,.23-4.64-.14c.28,1.69,1.18,3.26.19,4.77s-2.72,1.31-4.46,1.48c1,1.44,2.38,2.6,2.07,4.45s-2.15,2.39-3.54,3.42c1.4,1,3.14,1.49,3.52,3.31s-.95,3-2,4.47c1.67.36,3.48,0,4.44,1.6s.13,3-.31,4.75l1.6-.46c2.47-.74,3.87.13,4.25,2.66.14.95.24,1.9.38,2.85.22,1.46-.82,2.23-1.8,3.12.08-1,.21-2.08.24-3.12a16.41,16.41,0,0,0-.1-3c-.21-1.31-.95-1.8-2.24-1.35a42.07,42.07,0,0,0-4.08,1.85,4.08,4.08,0,0,1-1.21.47c.16-.35.33-.7.48-1.05.61-1.44,1.33-2.85,1.81-4.33s0-2.31-1.62-2.43a39.8,39.8,0,0,0-4.58.11A2.45,2.45,0,0,1,280,221c.35-.32.71-.62,1-1a38.08,38.08,0,0,0,2.79-2.8c1.26-1.52,1.05-2.62-.67-3.55-1.18-.64-2.48-1.07-3.73-1.59-.32-.13-.64-.25-1.28-.49.86-.33,1.45-.53,2-.78a28.75,28.75,0,0,0,3.46-1.64,1.63,1.63,0,0,0,.52-2.72,38.36,38.36,0,0,0-3.06-3.26,3.37,3.37,0,0,1-.86-1.14c1,.08,2.09.2,3.14.25a13.66,13.66,0,0,0,2.23-.06c1.54-.19,2.14-1,1.67-2.43s-1.26-3-1.91-4.52c-.12-.29-.26-.56-.53-1.13,1.06.57,1.83,1,2.65,1.41a19.39,19.39,0,0,0,2.76,1.13c1.4.41,2.17-.08,2.26-1.55s0-3.19-.08-4.79a2.65,2.65,0,0,1,.12-1.14l.66.74c1,1.08,1.9,2.23,3,3.2,1.34,1.22,2.33,1.05,3.17-.53a35.13,35.13,0,0,0,1.52-3.76,5.24,5.24,0,0,1,.73-1.5c.23.73.42,1.47.71,2.18a27.3,27.3,0,0,0,1.57,3.49,1.48,1.48,0,0,0,2.52.4,39.65,39.65,0,0,0,3-3.13c.33-.35.61-.73.92-1.1l.24.11c-.08,1-.22,2-.24,2.93a19.49,19.49,0,0,0,.1,3.09c.17,1.28.9,1.79,2.11,1.38,1.44-.49,2.8-1.21,4.19-1.84.37-.17.72-.39,1.29-.7-.74,1.63-1.43,3-2,4.4-1.13,2.84-.42,3.85,2.64,3.78a36.85,36.85,0,0,1,4.11-.08c-.29.28-.59.55-.87.84a40.65,40.65,0,0,0-3,3c-1.05,1.3-.84,2.35.6,3.19a29.09,29.09,0,0,0,3.3,1.49c.52.22,1.06.4,1.9.71l-1.34.57c-1.31.56-2.67,1-3.91,1.71-1.39.77-1.6,1.73-.64,3a29.34,29.34,0,0,0,2.69,2.88,8.44,8.44,0,0,1,1.28,1.41c-.92-.08-1.85-.21-2.77-.24a17.69,17.69,0,0,0-3,.08c-1.33.19-1.86.91-1.46,2.19.47,1.52,1.19,3,1.81,4.44a3.54,3.54,0,0,1,.39,1.26c-.92-.5-1.83-1-2.77-1.49a14,14,0,0,0-2.38-1c-1.36-.37-2.14.09-2.24,1.48-.12,1.59,0,3.19,0,4.79,0,.38.07.76.14,1.43"></path><path class="cls-6 path_29" d="M300,209.11a7.16,7.16,0,0,0,1.24,1.38,26.11,26.11,0,0,0,2.53,1.36,3.52,3.52,0,0,1,1.95,3.42,3.44,3.44,0,0,1-2.39,3.24,1.28,1.28,0,0,0-1,1.33c0,.37-.35.73-.54,1.1-.21-.34-.6-.68-.61-1a1,1,0,0,0-1.07-1.17,2.9,2.9,0,0,1-1.39-.5c-.27-.21-.28-.73-.41-1.11a3.37,3.37,0,0,1,1-.16,22.77,22.77,0,0,0,2.29.42,2.15,2.15,0,0,0,2.28-1.58,2.22,2.22,0,0,0-1.15-2.53c-.64-.39-1.33-.67-2-1-1.41-.71-2.54-1.67-2.52-3.4a3.58,3.58,0,0,1,2.43-3.32c.35-.16.46-.83.7-1.26s.41-.64.62-1c.21.31.59.63.59.94a1.08,1.08,0,0,0,1.11,1.25,1.22,1.22,0,0,1,.7.22c.27.28.63.67.61,1,0,.69-.55.48-1,.39a8.54,8.54,0,0,0-2.41-.24c-1,.09-1.49.76-1.54,2.22"></path><path class="cls-6 path_30" d="M301.62,230.6c-.82,0-1.64,0-2.44,0-.26,0-.5-.36-.75-.55.26-.19.51-.54.77-.55q2.34-.08,4.68,0c.26,0,.5.37.75.57-.26.19-.5.5-.78.53a21.83,21.83,0,0,1-2.23,0"></path><path class="cls-6 path_31" d="M301.51,227.73c.78,0,1.57,0,2.35,0,.28,0,.52.34.78.52-.25.2-.49.57-.74.58q-2.35.08-4.71,0c-.27,0-.52-.35-.78-.54.28-.2.55-.53.85-.56a20.21,20.21,0,0,1,2.24,0"></path><path class="cls-6 path_32" d="M301.47,232.3c-.78,0-1.57,0-2.34,0-.23,0-.44-.33-.66-.51.21-.16.41-.44.63-.45q2.45-.06,4.9,0c.21,0,.41.3.61.46-.23.17-.44.48-.68.5-.81.06-1.63,0-2.45,0"></path><path class="cls-6 path_33" d="M293.39,364.44c-.78-.1-1.32,0-1.32,1s.38,1.16,1.21,1.14,1.31-.09,1.3-1-.33-1.23-1.2-1.08m0,3.59c-.76-.13-1.26.06-1.28,1s.38,1.15,1.21,1.13,1.3-.1,1.3-1-.34-1.22-1.23-1.07m-8.1,11.65c0,.18,0,.27,0,.36,0,.75,0,1.33,1.08,1.32s1.13-.56,1.11-1.32c0-.19,0-.37,0-.56,0-1.26-.21-1.42-1.46-1.26s-.57,1-.73,1.46m9.18-18.85h0c-.48,0-1,0-1.45,0-.77,0-.9.42-.9,1s.1,1.08.86,1.09,1.8,0,2.7,0,1.05-.45,1.08-1.19-.4-1-1.13-1c-.38,0-.77,0-1.16,0m-2.35,15.63h0c0,1.32,0,2.64,0,4,0,.44,0,1,.68.87.22,0,.43-.55.49-.88a20.51,20.51,0,0,1,.67-4,10.35,10.35,0,0,0,.65-3.75c0-.85-.4-1.06-1.19-1s-1.34.06-1.32,1c0,1.29,0,2.57,0,3.86m22.62-3.93a2.81,2.81,0,0,0-3,2.79,2.95,2.95,0,0,0,5.89.07,2.85,2.85,0,0,0-2.92-2.86M291.57,355h0c-.87,0-1.73,0-2.6,0-2.95.06-2.67-.55-2.69,2.78,0,.81.32,1.12,1.15,1.1a10,10,0,0,1,3.25.12c1.69.56,3.37.29,5,.38.69,0,1-.32,1-1,0-.82,0-1.63,0-2.45s-.29-1-1-1c-1.38,0-2.76,0-4.14,0m13.7,16.67c0-2.1,0-4,0-6,0-.83-.33-1.1-1.14-1.09-2.31,0-4.63,0-6.94,0-1,0-1.29.38-1.27,1.28,0,2,0,4,0,6a9.34,9.34,0,0,0,.17,1.2c1-.67,2.15-.88,2-2.27,0-.19.34-.55.57-.58a1.17,1.17,0,0,1,.93.26c.74.89,1.27.93,2,0,.39-.49,1.33-.52,1.53,0,.37,1,1.25.76,2.12,1.1M282,371q0,2,0,4.06c0,1.76,0,3.52,0,5.28,0,.69.24,1,1,1s.77-.48.77-1c0-.91,0-1.82,0-2.74,0-.55.26-.81.82-.8h3.28c.63,0,.85.33.84.89,0,.88,0,1.76,0,2.64,0,.61.06,1,.86,1s1.1-.25,1.1-1q0-9.44,0-18.87c0-.82-.36-1.2-1.23-1.19-2,0-3.93,0-5.89,0-1.36,0-1.55.19-1.55,1.55,0,3.05,0,6.1,0,9.15m28.27,16c-.47.94-.9,1.68-1.19,2.46-.08.22.14.64.35.85a7.32,7.32,0,0,1,1.85,4.56,3.88,3.88,0,0,1-.15.82l-6.23-3.15a4.56,4.56,0,0,1,.53-.58A11.32,11.32,0,0,0,309,387.2a27.89,27.89,0,0,1,2.13-3.3l.65,1a7.07,7.07,0,0,0,4.32,3.11,1.26,1.26,0,0,0,1.67-.71,1.2,1.2,0,0,0-.8-1.67c-2.42-.84-3.4-2.6-3.61-5s-1.28-3.46-3.64-3.56a8.8,8.8,0,0,0-7.68,3.4,2.22,2.22,0,0,0-.39,1.64c.2.91,1.41,1,2.18.27a13.78,13.78,0,0,1,2.26-1.86,7.82,7.82,0,0,1,2.06-.57l.16.25c-.65,1.14-1.35,2.26-1.92,3.44a10.41,10.41,0,0,0-.89,2.65,5.23,5.23,0,0,1-2.79,4,1.56,1.56,0,0,1-1.32,0c-2.85-1.9-5.72-3.79-7.35-6.92-.34-.66-.92-.6-1.49-.6H280a2.35,2.35,0,0,1-1-.06,1,1,0,0,1-.56-.7c0-.23.35-.48.6-.66s.31,0,.47,0c.83.07,1.06-.34,1-1.08,0-1.29,0-2.58,0-3.87q0-7.36,0-14.72c0-2.27.54-2.79,2.81-2.81,1.5,0,1.55-.06,1.56-1.56q0-1.23,0-2.45a1.15,1.15,0,0,1,1.3-1.29c3.51,0,7,0,10.53,0,1,0,1.41.43,1.42,1.6,0,2.14,0,4.28,0,6.42,0,1.59,0,1.6,1.68,1.6h4.73c1.95,0,2.12.16,2.12,2,0,2.11,0,4.21,0,6.32a2,2,0,0,0,.27,1.06c.59.82,1,.78,1.54-.07a9,9,0,0,1,11.35-3.19,8.31,8.31,0,0,1,4.34,10.61,37,37,0,0,1-5.68,8.94c-1.23,1.57-2.51,3.11-3.77,4.66-.19.23-.41.45-.76.83a10.27,10.27,0,0,0-3.73-7.44"></path><style>
.path_0{stroke-dasharray:331 333;stroke-dashoffset:332;animation:path_draw 2500ms ease 0ms forwards;}
.path_1{stroke-dasharray:302 304;stroke-dashoffset:303;animation:path_draw 2500ms ease 0ms forwards;}
.path_2{stroke-dasharray:330 332;stroke-dashoffset:331;animation:path_draw 2500ms ease 0ms forwards;}
.path_3{stroke-dasharray:76 78;stroke-dashoffset:77;animation:path_draw 2500ms ease 0ms forwards;}
.path_4{stroke-dasharray:238 240;stroke-dashoffset:239;animation:path_draw 2500ms ease 0ms forwards;}
.path_5{stroke-dasharray:226 228;stroke-dashoffset:227;animation:path_draw 2500ms ease 0ms forwards;}
.path_6{stroke-dasharray:218 220;stroke-dashoffset:219;animation:path_draw 2500ms ease 0ms forwards;}.path_7{stroke-dasharray:196 198;stroke-dashoffset:197;animation:path_draw 2500ms ease 0ms forwards;}.path_8{stroke-dasharray:300 302;stroke-dashoffset:301;animation:path_draw 2500ms ease 0ms forwards;}.path_9{stroke-dasharray:227 229;stroke-dashoffset:228;animation:path_draw 2500ms ease 0ms forwards;}.path_10{stroke-dasharray:227 229;stroke-dashoffset:228;animation:path_draw 2500ms ease 0ms forwards;}.path_11{stroke-dasharray:63 65;stroke-dashoffset:64;animation:path_draw 2500ms ease 0ms forwards;}.path_12{stroke-dasharray:64 66;stroke-dashoffset:65;animation:path_draw 2500ms ease 0ms forwards;}.path_13{stroke-dasharray:63 65;stroke-dashoffset:64;animation:path_draw 2500ms ease 0ms forwards;}.path_14{stroke-dasharray:64 66;stroke-dashoffset:65;animation:path_draw 2500ms ease 0ms forwards;}.path_15{stroke-dasharray:63 65;stroke-dashoffset:64;animation:path_draw 2500ms ease 0ms forwards;}.path_16{stroke-dasharray:64 66;stroke-dashoffset:65;animation:path_draw 2500ms ease 0ms forwards;}.path_17{stroke-dasharray:63 65;stroke-dashoffset:64;animation:path_draw 2500ms ease 0ms forwards;}.path_18{stroke-dasharray:64 66;stroke-dashoffset:65;animation:path_draw 2500ms ease 0ms forwards;}.path_19{stroke-dasharray:63 65;stroke-dashoffset:64;animation:path_draw 2500ms ease 0ms forwards;}.path_20{stroke-dasharray:64 66;stroke-dashoffset:65;animation:path_draw 2500ms ease 0ms forwards;}.path_21{stroke-dasharray:227 229;stroke-dashoffset:228;animation:path_draw 2500ms ease 0ms forwards;}.path_22{stroke-dasharray:226 228;stroke-dashoffset:227;animation:path_draw 2500ms ease 0ms forwards;}.path_23{stroke-dasharray:224 226;stroke-dashoffset:225;animation:path_draw 2500ms ease 0ms forwards;}.path_24{stroke-dasharray:224 226;stroke-dashoffset:225;animation:path_draw 2500ms ease 0ms forwards;}.path_25{stroke-dasharray:276 278;stroke-dashoffset:277;animation:path_draw 2500ms ease 0ms forwards;}.path_26{stroke-dasharray:98 100;stroke-dashoffset:99;animation:path_draw 2500ms ease 0ms forwards;}.path_27{stroke-dasharray:200 202;stroke-dashoffset:201;animation:path_draw 2500ms ease 0ms forwards;}.path_28{stroke-dasharray:361 363;stroke-dashoffset:362;animation:path_draw 2500ms ease 0ms forwards;}.path_29{stroke-dasharray:57 59;stroke-dashoffset:58;animation:path_draw 2500ms ease 0ms forwards;}.path_30{stroke-dasharray:14 16;stroke-dashoffset:15;animation:path_draw 2500ms ease 0ms forwards;}.path_31{stroke-dasharray:14 16;stroke-dashoffset:15;animation:path_draw 2500ms ease 0ms forwards;}.path_32{stroke-dasharray:13 15;stroke-dashoffset:14;animation:path_draw 2500ms ease 0ms forwards;}.path_33{stroke-dasharray:442 444;stroke-dashoffset:443;animation:path_draw 2500ms ease 0ms forwards;}
@keyframes path_draw{100%{stroke-dashoffset:0;}}
@keyframes path_fade{0%{stroke-opacity:1;}98.76543209876543%{stroke-opacity:1;}100%{stroke-opacity:0;}}
</style></svg>
